<?xml version="1.0" encoding="utf-8"?>
<!-- Generator: Adobe Illustrator 15.1.0, SVG Export Plug-In  -->
<!DOCTYPE svg PUBLIC "-//W3C//DTD SVG 1.1//EN" "http://www.w3.org/Graphics/SVG/1.1/DTD/svg11.dtd" [
	<!ENTITY ns_flows "http://ns.adobe.com/Flows/1.0/">
]>
<svg version="1.1"
	 xmlns="http://www.w3.org/2000/svg" xmlns:xlink="http://www.w3.org/1999/xlink" xmlns:a="http://ns.adobe.com/AdobeSVGViewerExtensions/3.0/"
	 x="0px" y="0px" width="100px" height="70px" viewBox="0 0 100 70" enable-background="new 0 0 100 70" xml:space="preserve">
<defs>
</defs>
<rect fill="#25B395" width="100" height="70"/>
<path fill="#FDFBFB" d="M37.611,27.541c0,4.539,2.442,8.505,6.083,10.664C48.522,41.271,50,50.036,50,50.036V15.151
	C43.158,15.151,37.611,20.698,37.611,27.541"/>
<path fill="#FDFBFB" d="M50,15.151v34.885c0,0,1.477-8.765,6.306-11.832c3.641-2.158,6.083-6.125,6.083-10.664
	C62.39,20.698,56.843,15.151,50,15.151"/>
<path fill="#25B395" d="M59.33,27.541c0,5.152-4.177,9.33-9.33,9.33s-9.33-4.177-9.33-9.33c0-5.153,4.177-9.33,9.33-9.33
	S59.33,22.388,59.33,27.541"/>
</svg>
